<?xml version="1.0" encoding="utf-8"?><svg width="521" height="509" viewBox="0 0 521 509" fill="none" xmlns="http://www.w3.org/2000/svg">
<path d="M261.619 34.6821C144.57 34.6822 49.6831 129.569 49.6831 246.618C49.6831 363.668 144.57 458.555 261.619 458.555C378.669 458.555 473.556 363.668 473.556 246.618C473.556 129.569 378.669 34.6821 261.619 34.6821Z" stroke="#D9D8D6"/>
<path fill-rule="evenodd" clip-rule="evenodd" d="M98.2701 382.418C28.5172 298.977 32.829 174.582 111.206 96.2051C189.583 17.8279 313.979 13.5161 397.42 83.269L395.523 85.1657C313.133 16.4511 190.428 20.7602 113.095 98.0938C35.7622 175.427 31.4532 298.131 100.168 380.521L98.2701 382.418Z" fill="url(#paint0_linear_712_100)"/>
<path fill-rule="evenodd" clip-rule="evenodd" d="M425.15 112C494.903 195.441 490.591 319.836 412.214 398.213C333.836 476.59 209.44 480.902 126 411.149L127.897 409.252C210.286 477.967 332.991 473.658 410.325 396.324C487.658 318.991 491.967 196.287 423.252 113.897L425.15 112Z" fill="url(#paint1_linear_712_100)"/>
<path d="M257 303C279.644 303 298 284.644 298 262C298 239.356 279.644 221 257 221C234.356 221 216 239.356 216 262C216 284.644 234.356 303 257 303Z" fill="#4B4C5E"/>
<path d="M257 300.5C278.263 300.5 295.5 283.263 295.5 262C295.5 240.737 278.263 223.5 257 223.5C235.737 223.5 218.5 240.737 218.5 262C218.5 283.263 235.737 300.5 257 300.5Z" stroke="#4B4C5E" stroke-width="5"/>
<path fill-rule="evenodd" clip-rule="evenodd" d="M241.069 245C240.522 245 240.079 245.444 240.079 245.992V251.466C240.079 252.013 240.523 252.457 241.069 252.457C241.617 252.457 242.061 252.013 242.061 251.466V246.983H246.546C247.094 246.983 247.537 246.539 247.537 245.992C247.537 245.444 247.094 245 246.546 245H241.069Z" fill="#05D5FF"/>
<path fill-rule="evenodd" clip-rule="evenodd" d="M240.079 272.015V277.491C240.079 278.039 240.523 278.483 241.07 278.483H246.547C247.094 278.483 247.538 278.039 247.538 277.491C247.538 276.944 247.094 276.5 246.547 276.5H242.062V272.015C242.062 271.467 241.618 271.024 241.07 271.024C240.523 271.024 240.079 271.467 240.079 272.015Z" fill="#05D5FF"/>
<path fill-rule="evenodd" clip-rule="evenodd" d="M267.445 245C266.898 245 266.454 245.444 266.454 245.992C266.454 246.539 266.898 246.983 267.445 246.983H271.93V251.466C271.93 252.013 272.373 252.457 272.92 252.457C273.468 252.457 273.912 252.013 273.912 251.466V245.992C273.912 245.444 273.468 245 272.92 245H267.445Z" fill="#05D5FF"/>
<path fill-rule="evenodd" clip-rule="evenodd" d="M271.93 272.015V276.5H267.445C266.898 276.5 266.454 276.944 266.454 277.491C266.454 278.039 266.898 278.483 267.445 278.483H272.92V278.482C273.468 278.482 273.912 278.038 273.912 277.49V272.015C273.912 271.467 273.468 271.024 272.92 271.024C272.373 271.024 271.93 271.467 271.93 272.015Z" fill="#05D5FF"/>
<path fill-rule="evenodd" clip-rule="evenodd" d="M241.762 260.113H240.943C240.423 260.113 240 260.548 240 261.085C240 261.622 240.423 262.056 240.943 262.056H241.76C245.028 267.467 250.812 270.811 256.999 270.811C263.188 270.811 268.972 267.467 272.24 262.056H273.056C273.577 262.056 274 261.622 274 261.085C274 260.548 273.577 260.113 273.056 260.113H272.239C268.97 254.702 263.187 251.358 256.999 251.358C250.812 251.358 245.031 254.702 241.762 260.113ZM260.507 253.714C264.278 254.593 267.662 256.858 269.971 260.113H264.922C264.597 257.295 262.883 254.917 260.507 253.714ZM253.492 253.714C251.116 254.917 249.403 257.295 249.079 260.113H244.029C246.338 256.859 249.722 254.593 253.492 253.714ZM257 254.81C260.039 254.81 262.558 257.114 263.014 260.113H250.987C251.442 257.113 253.961 254.81 257 254.81ZM264.922 262.056H269.973C267.663 265.311 264.278 267.577 260.504 268.456C262.882 267.253 264.597 264.873 264.922 262.056ZM250.987 262.056H263.014C262.558 265.054 260.039 267.359 257 267.359C253.961 267.359 251.442 265.054 250.987 262.056ZM244.028 262.056H249.079C249.403 264.873 251.118 267.253 253.494 268.456C249.722 267.577 246.337 265.311 244.028 262.056Z" fill="white"/>
<path d="M205.092 317.2H203.104L199.268 327H201.424L202.194 325.068H205.988L206.772 327H208.928L205.092 317.2ZM204.098 320.028L205.316 323.22H202.88L204.098 320.028ZM210.061 327H216.627V325.082H212.147V317.2H210.061V327ZM218.1 327H224.666V325.082H220.186V317.2H218.1V327ZM234.235 323.15C235.243 323.332 235.607 323.696 235.607 324.186C235.607 324.788 234.991 325.25 233.899 325.25C232.653 325.25 231.729 324.62 231.127 323.836L229.699 325.278C230.511 326.3 231.953 327.154 233.773 327.154C236.139 327.154 237.679 325.95 237.679 324.158C237.679 322.422 236.531 321.442 234.375 321.092L233.409 320.938C232.373 320.756 232.009 320.378 232.009 319.902C232.009 319.328 232.569 318.936 233.451 318.936C234.501 318.936 235.313 319.426 235.943 320.07L237.343 318.6C236.559 317.774 235.285 317.032 233.563 317.032C231.701 317.032 229.937 318.096 229.937 320C229.937 321.68 231.197 322.632 233.031 322.94L234.235 323.15ZM246.643 323.836C245.985 324.732 245.089 325.208 243.983 325.208C242.345 325.208 240.959 324.074 240.959 322.072C240.959 320.056 242.457 318.978 243.871 318.978C244.963 318.978 245.901 319.496 246.475 320.308L247.875 318.88C246.965 317.76 245.663 317.032 243.969 317.032C241.099 317.032 238.831 318.992 238.831 322.114C238.831 325.194 241.099 327.154 244.039 327.154C245.887 327.154 247.147 326.384 248.029 325.306L246.643 323.836ZM254.133 317.2H252.145L248.309 327H250.465L251.235 325.068H255.029L255.813 327H257.969L254.133 317.2ZM253.139 320.028L254.357 323.22H251.921L253.139 320.028ZM265.15 327H267.642V317.2H265.57V323.836L261.608 317.2H259.102V327H261.188V320.392L265.15 327ZM275.65 327H278.142V317.2H276.07V323.836L272.108 317.2H269.602V327H271.688V320.392L275.65 327ZM285.1 317.2H283.112L279.276 327H281.432L282.202 325.068H285.996L286.78 327H288.936L285.1 317.2ZM284.106 320.028L285.324 323.22H282.888L284.106 320.028ZM290.069 327H294.717C296.761 327 298.105 325.852 298.105 324.13C298.105 323.248 297.755 322.52 296.859 321.89C297.489 321.4 297.867 320.658 297.867 319.902C297.867 318.11 296.481 317.2 294.479 317.2H290.069V327ZM292.155 325.082V322.87H294.297C295.305 322.87 296.005 323.15 296.005 323.948C296.005 324.816 295.319 325.082 294.241 325.082H292.155ZM294.059 319.118C295.235 319.118 295.767 319.356 295.767 320.112C295.767 320.77 295.277 321.12 294.143 321.12H292.155V319.118H294.059ZM299.721 327H306.287V325.082H301.807V317.2H299.721V327ZM307.76 327H314.998V325.082H309.846V322.94H314.76V321.05H309.846V319.118H314.998V317.2H307.76V327ZM204.17 331.2H201.944L204.562 341H206.69L208.384 334.532L210.064 341H212.192L214.81 331.2H212.584L211.072 337.472L209.49 331.2H207.264L205.682 337.472L204.17 331.2ZM216.084 341H218.156V331.2H216.084V341ZM219.543 331.2V333.118H222.357V341H224.429V333.118H227.243V331.2H219.543ZM234.85 341H236.922V331.2H234.85V335.036H230.734V331.2H228.648V341H230.734V336.94H234.85V341ZM247.81 331.2H245.822L241.986 341H244.142L244.912 339.068H248.706L249.49 341H251.646L247.81 331.2ZM246.816 334.028L248.034 337.22H245.598L246.816 334.028ZM259.638 337.836C258.98 338.732 258.084 339.208 256.978 339.208C255.34 339.208 253.954 338.074 253.954 336.072C253.954 334.056 255.452 332.978 256.866 332.978C257.958 332.978 258.896 333.496 259.47 334.308L260.87 332.88C259.96 331.76 258.658 331.032 256.964 331.032C254.094 331.032 251.826 332.992 251.826 336.114C251.826 339.194 254.094 341.154 257.034 341.154C258.882 341.154 260.142 340.384 261.024 339.306L259.638 337.836ZM268.548 336.716C268.548 338.298 267.932 339.25 266.504 339.25C265.09 339.25 264.46 338.144 264.46 336.744V331.2H262.388V336.646C262.388 339.642 263.984 341.154 266.504 341.154C269.024 341.154 270.62 339.642 270.62 336.646V331.2H268.548V336.716ZM278.528 341H281.02V331.2H278.948V337.836L274.986 331.2H272.48V341H274.566V334.392L278.528 341ZM282.98 341H290.218V339.082H285.066V336.94H289.98V335.05H285.066V333.118H290.218V331.2H282.98V341ZM291.525 331.2V333.118H294.339V341H296.411V333.118H299.225V331.2H291.525ZM300.644 341H302.716V331.2H300.644V341ZM306.652 331.2H304.216L307.268 335.974L304.034 341H306.456L308.5 337.696L310.558 341H312.98L309.746 335.974L312.798 331.2H310.362L308.5 334.294L306.652 331.2Z" fill="black"/>
<path d="M60 323C93.137 323 120 296.137 120 263C120 229.863 93.137 203 60 203C26.8629 203 0 229.863 0 263C0 296.137 26.8629 323 60 323Z" fill="#4B4C5E"/>
<path d="M257 120C290.137 120 317 93.137 317 60C317 26.8629 290.137 0 257 0C223.863 0 197 26.8629 197 60C197 93.137 223.863 120 257 120Z" fill="#4B4C5E"/>
<path d="M461 323C494.137 323 521 296.137 521 263C521 229.863 494.137 203 461 203C427.863 203 401 229.863 401 263C401 296.137 427.863 323 461 323Z" fill="#4B4C5E"/>
<path fill-rule="evenodd" clip-rule="evenodd" d="M464.408 235.074C464.589 235.135 464.756 235.23 464.9 235.354C465.044 235.479 465.162 235.631 465.247 235.801C465.332 235.972 465.383 236.157 465.396 236.347C465.41 236.537 465.386 236.728 465.326 236.909L459.526 254.309C459.404 254.674 459.143 254.975 458.799 255.147C458.455 255.32 458.056 255.348 457.691 255.226C457.327 255.105 457.025 254.843 456.853 254.499C456.681 254.155 456.652 253.757 456.774 253.392L462.574 235.992C462.634 235.811 462.729 235.644 462.854 235.5C462.978 235.356 463.13 235.239 463.301 235.153C463.471 235.068 463.656 235.017 463.846 235.004C464.036 234.99 464.227 235.014 464.408 235.074ZM454.825 239.775C455.097 240.047 455.249 240.416 455.249 240.8C455.249 241.185 455.097 241.554 454.825 241.826L451.5 245.15L454.825 248.475C454.963 248.609 455.074 248.769 455.15 248.946C455.226 249.123 455.266 249.313 455.267 249.506C455.269 249.698 455.232 249.889 455.16 250.067C455.087 250.246 454.979 250.407 454.843 250.544C454.707 250.68 454.545 250.787 454.367 250.86C454.188 250.933 453.997 250.97 453.805 250.968C453.612 250.967 453.422 250.927 453.245 250.851C453.068 250.775 452.908 250.664 452.775 250.526L448.425 246.176C448.153 245.904 448 245.535 448 245.15C448 244.766 448.153 244.397 448.425 244.125L452.775 239.775C453.046 239.503 453.415 239.351 453.8 239.351C454.184 239.351 454.553 239.503 454.825 239.775ZM467.275 239.775C467.546 239.503 467.915 239.351 468.3 239.351C468.684 239.351 469.053 239.503 469.325 239.775L473.675 244.125C473.947 244.397 474.099 244.766 474.099 245.15C474.099 245.535 473.947 245.904 473.675 246.176L469.325 250.526C469.191 250.664 469.031 250.775 468.854 250.851C468.677 250.927 468.487 250.967 468.294 250.968C468.102 250.97 467.911 250.933 467.733 250.86C467.555 250.787 467.393 250.68 467.257 250.544C467.12 250.407 467.013 250.246 466.94 250.067C466.867 249.889 466.83 249.698 466.832 249.506C466.834 249.313 466.874 249.123 466.95 248.946C467.026 248.769 467.136 248.609 467.275 248.475L470.599 245.15L467.275 241.826C467.003 241.554 466.85 241.185 466.85 240.8C466.85 240.416 467.003 240.047 467.275 239.775Z" fill="white"/>
<path d="M447.418 275.65H449.194V267.25H447.418V270.538H443.89V267.25H442.102V275.65H443.89V272.17H447.418V275.65ZM450.399 267.25V268.894H452.811V275.65H454.587V268.894H456.999V267.25H450.399ZM461.587 273.958H463.171L464.779 270.886V275.65H466.555V267.25H464.779L462.379 271.966L459.991 267.25H458.203V275.65H459.991V270.886L461.587 273.958ZM468.235 275.65H473.863V274.006H470.023V267.25H468.235V275.65ZM479.457 272.914C479.457 273.658 478.833 274.15 478.041 274.15C477.261 274.15 476.709 273.766 476.277 273.19L475.005 274.45C475.581 275.23 476.673 275.782 477.909 275.782C479.841 275.782 481.233 274.606 481.233 272.818C481.233 271.078 479.841 270.046 478.365 270.046C477.741 270.046 477.321 270.19 476.961 270.43L477.033 268.894H480.561V267.25H475.365L475.161 272.41H476.805C477.033 271.87 477.513 271.606 478.077 271.606C478.881 271.606 479.457 272.17 479.457 272.914ZM454.527 287.65H456.579L455.259 285.958C455.847 285.178 456.231 284.146 456.399 283.27H454.611C454.479 283.822 454.359 284.122 454.179 284.494L453.183 283.27L453.351 283.15C454.215 282.574 454.671 282.022 454.671 281.122C454.671 280.03 453.735 279.106 452.391 279.106C450.987 279.106 450.051 279.97 450.051 281.086C450.051 281.65 450.207 282.118 450.735 282.802L450.651 282.85C449.739 283.318 449.127 284.17 449.127 285.262C449.127 286.51 449.979 287.782 451.971 287.782C452.811 287.782 453.447 287.59 454.083 287.134L454.527 287.65ZM452.007 286.198C451.323 286.198 450.855 285.73 450.855 285.178C450.855 284.686 451.203 284.338 451.647 284.11L451.707 284.074L453.051 285.85C452.775 286.066 452.463 286.198 452.007 286.198ZM452.367 280.702C452.727 280.702 452.943 280.918 452.943 281.206C452.943 281.47 452.847 281.698 452.355 281.974L452.223 282.046L452.163 281.974C451.923 281.686 451.827 281.458 451.827 281.242C451.827 280.93 452.067 280.702 452.367 280.702ZM460.605 286.474C461.085 287.278 461.889 287.782 463.041 287.782C464.841 287.782 465.921 286.738 465.921 284.758V279.25H464.145V284.83C464.145 285.67 463.701 286.15 462.993 286.15C462.453 286.15 462.069 285.802 461.805 285.286L460.605 286.474ZM471.037 284.35C471.901 284.506 472.213 284.818 472.213 285.238C472.213 285.754 471.685 286.15 470.749 286.15C469.681 286.15 468.889 285.61 468.373 284.938L467.149 286.174C467.845 287.05 469.081 287.782 470.641 287.782C472.669 287.782 473.989 286.75 473.989 285.214C473.989 283.726 473.005 282.886 471.157 282.586L470.329 282.454C469.441 282.298 469.129 281.974 469.129 281.566C469.129 281.074 469.609 280.738 470.365 280.738C471.265 280.738 471.961 281.158 472.501 281.71L473.701 280.45C473.029 279.742 471.937 279.106 470.461 279.106C468.865 279.106 467.353 280.018 467.353 281.65C467.353 283.09 468.433 283.906 470.005 284.17L471.037 284.35Z" fill="white"/>
<path d="M254 509C287.137 509 314 482.137 314 449C314 415.863 287.137 389 254 389C220.863 389 194 415.863 194 449C194 482.137 220.863 509 254 509Z" fill="#4B4C5E"/>
<path fill-rule="evenodd" clip-rule="evenodd" d="M50 241.25C50 240.388 50.351 239.561 50.976 238.952C51.601 238.342 52.449 238 53.333 238H60.977C61.861 238 62.708 238.343 63.333 238.952L69.023 244.5C69.648 245.109 70 245.936 70 246.798V260.75C70 261.612 69.649 262.439 69.024 263.048C68.399 263.658 67.551 264 66.667 264H53.333C52.449 264 51.601 263.658 50.976 263.048C50.351 262.439 50 261.612 50 260.75V241.25Z" fill="white"/>
<path d="M52.4163 282.7C53.2803 282.856 53.5923 283.168 53.5923 283.588C53.5923 284.104 53.0643 284.5 52.1283 284.5C51.0603 284.5 50.2683 283.96 49.7523 283.288L48.5283 284.524C49.2243 285.4 50.4603 286.132 52.0203 286.132C54.0483 286.132 55.3683 285.1 55.3683 283.564C55.3683 282.076 54.3843 281.236 52.5363 280.936L51.7083 280.804C50.8203 280.648 50.5083 280.324 50.5083 279.916C50.5083 279.424 50.9883 279.088 51.7443 279.088C52.6443 279.088 53.3403 279.508 53.8803 280.06L55.0803 278.8C54.4083 278.092 53.3163 277.456 51.8403 277.456C50.2443 277.456 48.7323 278.368 48.7323 280C48.7323 281.44 49.8123 282.256 51.3843 282.52L52.4163 282.7ZM60.1003 283.336C62.0563 283.336 63.3883 282.16 63.3883 280.408C63.3883 278.656 62.0563 277.6 60.1003 277.6H56.6923V286H58.4803V283.336H60.1003ZM59.7883 279.244C61.0003 279.244 61.6123 279.592 61.6123 280.444C61.6123 281.284 60.9883 281.692 59.7883 281.692H58.4803V279.244H59.7883ZM67.8543 277.6H66.1503L62.8623 286H64.7103L65.3703 284.344H68.6223L69.2943 286H71.1423L67.8543 277.6ZM67.0023 280.024L68.0463 282.76H65.9583L67.0023 280.024Z" fill="white"/>
<path fill-rule="evenodd" clip-rule="evenodd" d="M249.286 34.375V31.125C249.286 28.9701 250.151 26.9035 251.692 25.3798C253.232 23.856 255.321 23 257.5 23C259.679 23 261.768 23.856 263.308 25.3798C264.849 26.9035 265.714 28.9701 265.714 31.125V34.375C266.586 34.375 267.421 34.7174 268.038 35.3269C268.654 35.9364 269 36.763 269 37.625V45.75C269 46.612 268.654 47.4386 268.038 48.0481C267.421 48.6576 266.586 49 265.714 49H249.286C248.414 49 247.579 48.6576 246.962 48.0481C246.346 47.4386 246 46.612 246 45.75V37.625C246 36.763 246.346 35.9364 246.962 35.3269C247.579 34.7174 248.414 34.375 249.286 34.375ZM262.429 31.125V34.375H252.571V31.125C252.571 29.8321 253.091 28.5921 254.015 27.6779C254.939 26.7636 256.193 26.25 257.5 26.25C258.807 26.25 260.061 26.7636 260.985 27.6779C261.909 28.5921 262.429 29.8321 262.429 31.125Z" fill="white"/>
<path d="M227.312 68.336C229.268 68.336 230.6 67.16 230.6 65.408C230.6 63.656 229.268 62.6 227.312 62.6H223.904V71H225.692V68.336H227.312ZM227 64.244C228.212 64.244 228.824 64.592 228.824 65.444C228.824 66.284 228.2 66.692 227 66.692H225.692V64.244H227ZM235.067 62.6H233.363L230.075 71H231.923L232.583 69.344H235.835L236.507 71H238.355L235.067 62.6ZM234.215 65.024L235.259 67.76H233.171L234.215 65.024ZM242.703 67.7C243.567 67.856 243.879 68.168 243.879 68.588C243.879 69.104 243.351 69.5 242.415 69.5C241.347 69.5 240.555 68.96 240.039 68.288L238.815 69.524C239.511 70.4 240.747 71.132 242.307 71.132C244.335 71.132 245.655 70.1 245.655 68.564C245.655 67.076 244.671 66.236 242.823 65.936L241.995 65.804C241.107 65.648 240.795 65.324 240.795 64.916C240.795 64.424 241.275 64.088 242.031 64.088C242.931 64.088 243.627 64.508 244.167 65.06L245.367 63.8C244.695 63.092 243.603 62.456 242.127 62.456C240.531 62.456 239.019 63.368 239.019 65C239.019 66.44 240.099 67.256 241.671 67.52L242.703 67.7ZM250.555 67.7C251.419 67.856 251.731 68.168 251.731 68.588C251.731 69.104 251.203 69.5 250.267 69.5C249.199 69.5 248.407 68.96 247.891 68.288L246.667 69.524C247.363 70.4 248.599 71.132 250.159 71.132C252.187 71.132 253.507 70.1 253.507 68.564C253.507 67.076 252.523 66.236 250.675 65.936L249.847 65.804C248.959 65.648 248.647 65.324 248.647 64.916C248.647 64.424 249.127 64.088 249.883 64.088C250.783 64.088 251.479 64.508 252.019 65.06L253.219 63.8C252.547 63.092 251.455 62.456 249.979 62.456C248.383 62.456 246.871 63.368 246.871 65C246.871 66.44 247.951 67.256 249.523 67.52L250.555 67.7ZM255.939 62.6H254.031L256.275 71H258.099L259.551 65.456L260.991 71H262.815L265.059 62.6H263.151L261.855 67.976L260.499 62.6H258.591L257.235 67.976L255.939 62.6ZM265.803 66.788C265.803 69.332 267.711 71.132 270.123 71.132C272.535 71.132 274.479 69.332 274.479 66.788C274.479 64.268 272.535 62.456 270.123 62.456C267.711 62.456 265.803 64.268 265.803 66.788ZM267.627 66.788C267.627 65.36 268.563 64.136 270.159 64.136C271.647 64.136 272.655 65.36 272.655 66.788C272.655 68.24 271.719 69.452 270.159 69.452C268.563 69.452 267.627 68.24 267.627 66.788ZM280.691 71H282.719L280.859 67.964C281.855 67.496 282.515 66.536 282.515 65.336C282.515 63.584 281.123 62.6 279.299 62.6H275.819V71H277.607V68.3H279.035L280.691 71ZM278.987 64.244C280.199 64.244 280.739 64.616 280.739 65.432C280.739 66.236 280.187 66.668 278.987 66.668H277.607V64.244H278.987ZM283.963 71H286.735C289.003 71 291.427 69.8 291.427 66.74C291.427 63.692 289.003 62.6 286.735 62.6H283.963V71ZM286.459 64.244C288.259 64.244 289.603 64.856 289.603 66.74C289.603 68.696 288.259 69.356 286.471 69.356H285.751V64.244H286.459ZM223.686 80.336C225.642 80.336 226.974 79.16 226.974 77.408C226.974 75.656 225.642 74.6 223.686 74.6H220.278V83H222.066V80.336H223.686ZM223.374 76.244C224.586 76.244 225.198 76.592 225.198 77.444C225.198 78.284 224.574 78.692 223.374 78.692H222.066V76.244H223.374ZM233.048 83H235.076L233.216 79.964C234.212 79.496 234.872 78.536 234.872 77.336C234.872 75.584 233.48 74.6 231.656 74.6H228.176V83H229.964V80.3H231.392L233.048 83ZM231.344 76.244C232.556 76.244 233.096 76.616 233.096 77.432C233.096 78.236 232.544 78.668 231.344 78.668H229.964V76.244H231.344ZM235.75 78.788C235.75 81.332 237.658 83.132 240.07 83.132C242.482 83.132 244.426 81.332 244.426 78.788C244.426 76.268 242.482 74.456 240.07 74.456C237.658 74.456 235.75 76.268 235.75 78.788ZM237.574 78.788C237.574 77.36 238.51 76.136 240.106 76.136C241.594 76.136 242.602 77.36 242.602 78.788C242.602 80.24 241.666 81.452 240.106 81.452C238.51 81.452 237.574 80.24 237.574 78.788ZM244.688 74.6V76.244H247.1V83H248.876V76.244H251.288V74.6H244.688ZM252.492 83H258.696V81.356H254.28V79.52H258.492V77.9H254.28V76.244H258.696V74.6H252.492V83ZM266.657 80.288C266.093 81.056 265.325 81.464 264.377 81.464C262.973 81.464 261.785 80.492 261.785 78.776C261.785 77.048 263.069 76.124 264.281 76.124C265.217 76.124 266.021 76.568 266.513 77.264L267.713 76.04C266.933 75.08 265.817 74.456 264.365 74.456C261.905 74.456 259.961 76.136 259.961 78.812C259.961 81.452 261.905 83.132 264.425 83.132C266.009 83.132 267.089 82.472 267.845 81.548L266.657 80.288ZM268.618 74.6V76.244H271.03V83H272.806V76.244H275.218V74.6H268.618ZM276.422 83H282.626V81.356H278.21V79.52H282.422V77.9H278.21V76.244H282.626V74.6H276.422V83ZM284.227 83H286.999C289.267 83 291.691 81.8 291.691 78.74C291.691 75.692 289.267 74.6 286.999 74.6H284.227V83ZM286.723 76.244C288.523 76.244 289.867 76.856 289.867 78.74C289.867 80.696 288.523 81.356 286.735 81.356H286.015V76.244H286.723ZM242.339 86.6H240.635L237.347 95H239.195L239.855 93.344H243.107L243.779 95H245.627L242.339 86.6ZM241.487 89.024L242.531 91.76H240.443L241.487 89.024ZM251.47 95H253.498L251.638 91.964C252.634 91.496 253.294 90.536 253.294 89.336C253.294 87.584 251.902 86.6 250.078 86.6H246.598V95H248.386V92.3H249.814L251.47 95ZM249.766 88.244C250.978 88.244 251.518 88.616 251.518 89.432C251.518 90.236 250.966 90.668 249.766 90.668H248.386V88.244H249.766ZM254.742 95H260.946V93.356H256.53V91.52H260.742V89.9H256.53V88.244H260.946V86.6H254.742V95ZM266.714 86.6H265.01L261.722 95H263.57L264.23 93.344H267.482L268.154 95H270.002L266.714 86.6ZM265.862 89.024L266.906 91.76H264.818L265.862 89.024ZM274.35 91.7C275.214 91.856 275.526 92.168 275.526 92.588C275.526 93.104 274.998 93.5 274.062 93.5C272.994 93.5 272.202 92.96 271.686 92.288L270.462 93.524C271.158 94.4 272.394 95.132 273.954 95.132C275.982 95.132 277.302 94.1 277.302 92.564C277.302 91.076 276.318 90.236 274.47 89.936L273.642 89.804C272.754 89.648 272.442 89.324 272.442 88.916C272.442 88.424 272.922 88.088 273.678 88.088C274.578 88.088 275.274 88.508 275.814 89.06L277.014 87.8C276.342 87.092 275.25 86.456 273.774 86.456C272.178 86.456 270.666 87.368 270.666 89C270.666 90.44 271.746 91.256 273.318 91.52L274.35 91.7Z" fill="white"/>
<path d="M249.55 422C249.112 422 248.693 422.174 248.383 422.483C248.074 422.793 247.9 423.212 247.9 423.65C247.9 424.088 248.074 424.507 248.383 424.817C248.693 425.126 249.112 425.3 249.55 425.3H259.45C259.887 425.3 260.307 425.126 260.617 424.817C260.926 424.507 261.1 424.088 261.1 423.65C261.1 423.212 260.926 422.793 260.617 422.483C260.307 422.174 259.887 422 259.45 422H249.55ZM244.6 428.6C244.6 428.162 244.774 427.743 245.083 427.433C245.393 427.124 245.812 426.95 246.25 426.95H262.75C263.187 426.95 263.607 427.124 263.917 427.433C264.226 427.743 264.4 428.162 264.4 428.6C264.4 429.038 264.226 429.457 263.917 429.767C263.607 430.076 263.187 430.25 262.75 430.25H246.25C245.812 430.25 245.393 430.076 245.083 429.767C244.774 429.457 244.6 429.038 244.6 428.6ZM241.3 435.2C241.3 434.325 241.647 433.485 242.266 432.867C242.885 432.248 243.725 431.9 244.6 431.9H264.4C265.275 431.9 266.114 432.248 266.733 432.867C267.352 433.485 267.7 434.325 267.7 435.2V441.8C267.7 442.675 267.352 443.515 266.733 444.133C266.114 444.752 265.275 445.1 264.4 445.1H244.6C243.725 445.1 242.885 444.752 242.266 444.133C241.647 443.515 241.3 442.675 241.3 441.8V435.2Z" fill="white"/>
<path d="M220.448 462.358H222.032L223.64 459.286V464.05H225.416V455.65H223.64L221.24 460.366L218.852 455.65H217.064V464.05H218.852V459.286L220.448 462.358ZM232.291 460.378C232.291 461.734 231.763 462.55 230.539 462.55C229.327 462.55 228.787 461.602 228.787 460.402V455.65H227.011V460.318C227.011 462.886 228.379 464.182 230.539 464.182C232.699 464.182 234.067 462.886 234.067 460.318V455.65H232.291V460.378ZM235.661 464.05H241.289V462.406H237.449V455.65H235.661V464.05ZM240.63 455.65V457.294H243.042V464.05H244.818V457.294H247.23V455.65H240.63ZM248.447 464.05H250.223V455.65H248.447V464.05ZM251.292 461.674H254.172V460.138H251.292V461.674ZM255.255 464.05H260.883V462.406H257.043V455.65H255.255V464.05ZM262.146 464.05H268.35V462.406H263.934V460.57H268.146V458.95H263.934V457.294H268.35V455.65H262.146V464.05ZM273.106 461.734L271.102 455.65H269.29L272.17 464.05H274.018L276.898 455.65H275.074L273.106 461.734ZM277.919 464.05H284.123V462.406H279.707V460.57H283.919V458.95H279.707V457.294H284.123V455.65H277.919V464.05ZM285.724 464.05H291.352V462.406H287.512V455.65H285.724V464.05ZM235.246 476.05V472.738H238.978V471.106H235.246V469.294H239.254V467.65H233.458V476.05H235.246ZM240.177 471.838C240.177 474.382 242.085 476.182 244.497 476.182C246.909 476.182 248.853 474.382 248.853 471.838C248.853 469.318 246.909 467.506 244.497 467.506C242.085 467.506 240.177 469.318 240.177 471.838ZM242.001 471.838C242.001 470.41 242.937 469.186 244.533 469.186C246.021 469.186 247.029 470.41 247.029 471.838C247.029 473.29 246.093 474.502 244.533 474.502C242.937 474.502 242.001 473.29 242.001 471.838ZM255.065 476.05H257.093L255.233 473.014C256.229 472.546 256.889 471.586 256.889 470.386C256.889 468.634 255.497 467.65 253.673 467.65H250.193V476.05H251.981V473.35H253.409L255.065 476.05ZM253.361 469.294C254.573 469.294 255.113 469.666 255.113 470.482C255.113 471.286 254.561 471.718 253.361 471.718H251.981V469.294H253.361ZM261.721 474.358H263.305L264.913 471.286V476.05H266.689V467.65H264.913L262.513 472.366L260.125 467.65H258.337V476.05H260.125V471.286L261.721 474.358ZM271.944 472.75C272.808 472.906 273.12 473.218 273.12 473.638C273.12 474.154 272.592 474.55 271.656 474.55C270.588 474.55 269.796 474.01 269.28 473.338L268.056 474.574C268.752 475.45 269.988 476.182 271.548 476.182C273.576 476.182 274.896 475.15 274.896 473.614C274.896 472.126 273.912 471.286 272.064 470.986L271.236 470.854C270.348 470.698 270.036 470.374 270.036 469.966C270.036 469.474 270.516 469.138 271.272 469.138C272.172 469.138 272.868 469.558 273.408 470.11L274.608 468.85C273.936 468.142 272.844 467.506 271.368 467.506C269.772 467.506 268.26 468.418 268.26 470.05C268.26 471.49 269.34 472.306 270.912 472.57L271.944 472.75Z" fill="white"/>
<defs>
<linearGradient id="paint0_linear_712_100" x1="326.684" y1="137.963" x2="198.57" y2="268.398" gradientUnits="userSpaceOnUse">
<stop stop-color="#CC8BDB"/>
<stop offset="1" stop-color="#CC8BDB" stop-opacity="0"/>
</linearGradient>
<linearGradient id="paint1_linear_712_100" x1="196.736" y1="356.455" x2="324.85" y2="226.02" gradientUnits="userSpaceOnUse">
<stop stop-color="#CC8BDB"/>
<stop offset="1" stop-color="#CC8BDB" stop-opacity="0"/>
</linearGradient>
</defs>
</svg>
